<svg viewBox="0 0 353 429" fill="none" xmlns="http://www.w3.org/2000/svg"><path d="M2.222 278c0-88-5-80 0-212l179-66 171 66v212L347 291l-6 13-11.5 19-17 16.5L268 369l-86.778 60L84.5 369 51 346l-21.5-20.5-16-21.5L7 291l-4.778-13z" fill="#083CF5"/><g filter="url(#prefix__filter0_d_2_225)"><path d="M13 270.911c0-81.641-3.078-74.219 1.564-196.68L180.746 13l158.755 61.23v196.681l-8.5 25.589-6.5 12.5-8 11.5-8.5 9.5-15.5 11-27 17-84.755 53-90.245-53L64 341l-13.5-11-9-9.5L31 309l-9-12.5-9-25.589z" fill="#041243"/></g><g filter="url(#prefix__filter1_d_2_225)" fill="#C2D0C3"><ellipse cx="24.166" cy="23.137" rx="24.166" ry="23.137" transform="scale(-1 1) rotate(4.737 -979.47 -2194.441)"/><ellipse cx="24.166" cy="23.137" rx="24.166" ry="23.137" transform="scale(-1 1) rotate(4.737 -792.934 -1887.904)"/><ellipse cx="24.166" cy="23.137" rx="24.166" ry="23.137" transform="scale(-1 1) rotate(4.737 -1081.902 -1825.145)"/><ellipse cx="24.166" cy="23.137" rx="24.166" ry="23.137" transform="scale(-1 1) rotate(4.737 -922.707 -1158.658)"/><ellipse cx="24.166" cy="23.137" rx="24.166" ry="23.137" transform="scale(-1 1) rotate(4.737 -1084.896 -1451.742)"/><ellipse cx="24.166" cy="23.137" rx="24.166" ry="23.137" transform="scale(-1 1) rotate(4.737 -820.274 -1527.95)"/></g><path stroke="#083CF5" stroke-width="10" d="M167.102 160.989l-15.1-17.764M138.309 160.989l-15.1-17.764M167.102 193.895l-15.1-17.764M138.309 193.895l-15.1-17.764M110.544 160.989l-15.1-17.764"/><ellipse cx="170.058" cy="271.141" rx="18.898" ry="19.141" fill="#FF0202"/><ellipse cx="200.835" cy="271.141" rx="19.438" ry="19.141" fill="#FF0202"/><path d="M186.916 310.457a2 2 0 01-2.767-.018l-26.47-25.7c-1.293-1.255-.394-3.447 1.408-3.435l53.303.33c1.803.011 2.67 2.213 1.359 3.452l-26.833 25.371z" fill="#FF0202"/><g filter="url(#prefix__filter2_d_2_225)"><path d="M148.028 317.17c10.444 9.443 37.407 26.57 64.132 25.288l16.214-3.683-3.678 5.551-5.274 3.641-5.505 3.207-8.877 3.215-18.776 4.055-33.386-3.084-31.489-17.514-30.613-5.51-3.13-20.721 32.511 1.362 16.899-7.651 25.957 3.114 25.298 14.427-10.771 3.735-16.736-7.616-12.776-1.816z" fill="#083CF5"/></g><g filter="url(#prefix__filter3_d_2_225)"><path d="M232.628 242.356c-11.547-8.057-40.447-21.663-66.8-17.035l-15.623 5.689 2.952-5.968 4.775-4.275 5.058-3.872 8.403-4.305 18.119-6.381 33.509-1.132 33.439 13.421 31.062 1.623 5.708 20.164-32.425 2.731-15.804 9.713-26.144.17-26.909-11.137 10.217-5.057 17.56 5.454 12.903.197z" fill="#083CF5"/></g><defs><filter id="prefix__filter0_d_2_225" x="8" y="13" width="335.501" height="406" filterUnits="userSpaceOnUse" color-interpolation-filters="sRGB"><feFlood flood-opacity="0" result="BackgroundImageFix"/><feColorMatrix in="SourceAlpha" values="0 0 0 0 0 0 0 0 0 0 0 0 0 0 0 0 0 0 127 0" result="hardAlpha"/><feOffset dy="4"/><feGaussianBlur stdDeviation="2"/><feComposite in2="hardAlpha" operator="out"/><feColorMatrix values="0 0 0 0 0 0 0 0 0 0 0 0 0 0 0 0 0 0 0.25 0"/><feBlend in2="BackgroundImageFix" result="effect1_dropShadow_2_225"/><feBlend in="SourceGraphic" in2="effect1_dropShadow_2_225" result="shape"/></filter><filter id="prefix__filter1_d_2_225" x="48.513" y="60.947" width="142.058" height="79.895" filterUnits="userSpaceOnUse" color-interpolation-filters="sRGB"><feFlood flood-opacity="0" result="BackgroundImageFix"/><feColorMatrix in="SourceAlpha" values="0 0 0 0 0 0 0 0 0 0 0 0 0 0 0 0 0 0 127 0" result="hardAlpha"/><feOffset dy="4"/><feGaussianBlur stdDeviation="2"/><feComposite in2="hardAlpha" operator="out"/><feColorMatrix values="0 0 0 0 0 0 0 0 0 0 0 0 0 0 0 0 0 0 0.25 0"/><feBlend in2="BackgroundImageFix" result="effect1_dropShadow_2_225"/><feBlend in="SourceGraphic" in2="effect1_dropShadow_2_225" result="shape"/></filter><filter id="prefix__filter2_d_2_225" x="83.646" y="305.326" width="148.728" height="61.119" filterUnits="userSpaceOnUse" color-interpolation-filters="sRGB"><feFlood flood-opacity="0" result="BackgroundImageFix"/><feColorMatrix in="SourceAlpha" values="0 0 0 0 0 0 0 0 0 0 0 0 0 0 0 0 0 0 127 0" result="hardAlpha"/><feOffset dy="4"/><feGaussianBlur stdDeviation="2"/><feComposite in2="hardAlpha" operator="out"/><feColorMatrix values="0 0 0 0 0 0 0 0 0 0 0 0 0 0 0 0 0 0 0.25 0"/><feBlend in2="BackgroundImageFix" result="effect1_dropShadow_2_225"/><feBlend in="SourceGraphic" in2="effect1_dropShadow_2_225" result="shape"/></filter><filter id="prefix__filter3_d_2_225" x="146.205" y="205.077" width="151.025" height="55.822" filterUnits="userSpaceOnUse" color-interpolation-filters="sRGB"><feFlood flood-opacity="0" result="BackgroundImageFix"/><feColorMatrix in="SourceAlpha" values="0 0 0 0 0 0 0 0 0 0 0 0 0 0 0 0 0 0 127 0" result="hardAlpha"/><feOffset dy="4"/><feGaussianBlur stdDeviation="2"/><feComposite in2="hardAlpha" operator="out"/><feColorMatrix values="0 0 0 0 0 0 0 0 0 0 0 0 0 0 0 0 0 0 0.25 0"/><feBlend in2="BackgroundImageFix" result="effect1_dropShadow_2_225"/><feBlend in="SourceGraphic" in2="effect1_dropShadow_2_225" result="shape"/></filter></defs></svg>